<?xml version="1.0"?>
<svg xmlns="http://www.w3.org/2000/svg" xmlns:xlink="http://www.w3.org/1999/xlink" id="Gradient" viewBox="0 0 512 512" width="512" height="512"><defs><linearGradient id="linear-gradient" x1="256" y1="464" x2="256" y2="16" gradientUnits="userSpaceOnUse"><stop offset="0" stop-color="#12c0e7"/><stop offset="0.5" stop-color="#c271eb"/><stop offset="1" stop-color="#f44f5a"/></linearGradient></defs><path d="M160,424a8,8,0,0,1-8,8H136a24.027,24.027,0,0,1-24-24V392a8,8,0,0,1,16,0v16a8.009,8.009,0,0,0,8,8h16A8,8,0,0,1,160,424Zm19.056-312,13.789-27.578a8,8,0,0,1,14.31,0L220.944,112H248a8,8,0,0,1,5.657,13.657l-20.973,20.972,7.161,35.8A8,8,0,0,1,227.2,190.4L200,170l-27.2,20.4a8,8,0,0,1-12.645-7.969l7.161-35.8-20.973-20.972A8,8,0,0,1,152,112ZM184,128H171.313l10.344,10.343a8,8,0,0,1,2.188,7.226l-3.894,19.468L195.2,153.6a8,8,0,0,1,9.6,0l15.249,11.437-3.894-19.468a8,8,0,0,1,2.188-7.226L228.687,128H216a8,8,0,0,1-7.155-4.422L200,105.889l-8.845,17.689A8,8,0,0,1,184,128ZM152,96a8,8,0,0,0,8-8V72a8.009,8.009,0,0,1,8-8h16a8,8,0,0,0,0-16H168a24.027,24.027,0,0,0-24,24V88A8,8,0,0,0,152,96Zm64-32h16a8.009,8.009,0,0,1,8,8V88a8,8,0,0,0,16,0V72a24.027,24.027,0,0,0-24-24H216a8,8,0,0,0,0,16ZM387.056,304l13.789-27.578a8,8,0,0,1,14.31,0L428.944,304H456a8,8,0,0,1,5.657,13.657l-20.973,20.972,7.161,35.8A8,8,0,0,1,435.2,382.4L408,362l-27.2,20.4a8,8,0,0,1-12.645-7.969l7.161-35.8-20.973-20.972A8,8,0,0,1,360,304ZM392,320H379.313l10.344,10.343a8,8,0,0,1,2.188,7.226l-3.894,19.468L403.2,345.6a8,8,0,0,1,9.6,0l15.249,11.437-3.894-19.468a8,8,0,0,1,2.188-7.226L436.687,320H424a8,8,0,0,1-7.155-4.422L408,297.889l-8.845,17.689A8,8,0,0,1,392,320Zm-32-32a8,8,0,0,0,8-8V264a8.009,8.009,0,0,1,8-8h16a8,8,0,0,0,0-16H376a24.027,24.027,0,0,0-24,24v16A8,8,0,0,0,360,288Zm64-32h16a8.009,8.009,0,0,1,8,8v16a8,8,0,0,0,16,0V264a24.027,24.027,0,0,0-24-24H424a8,8,0,0,0,0,16Zm32,128a8,8,0,0,0-8,8v16a8.009,8.009,0,0,1-8,8H424a8,8,0,0,0,0,16h16a24.027,24.027,0,0,0,24-24V392A8,8,0,0,0,456,384Zm-80,48h16a8,8,0,0,0,0-16H376a8.009,8.009,0,0,1-8-8V392a8,8,0,0,0-16,0v16A24.027,24.027,0,0,0,376,432ZM16,440V232a24.027,24.027,0,0,1,24-24h72V40a24.027,24.027,0,0,1,24-24H264a24.027,24.027,0,0,1,24,24V208H472a24.027,24.027,0,0,1,24,24V440a24.027,24.027,0,0,1-24,24H40A24.027,24.027,0,0,1,16,440ZM151.845,337.569l-3.894,19.468L160,348V313.888l-.845,1.69A8,8,0,0,1,152,320H139.313l10.344,10.343A8,8,0,0,1,151.845,337.569ZM192,448h1.376A23.889,23.889,0,0,1,192,440V232a23.889,23.889,0,0,1,1.376-8H184a8.009,8.009,0,0,0-8,8V440a8.009,8.009,0,0,0,8,8Zm24,0h9.376A23.889,23.889,0,0,1,224,440V232a23.889,23.889,0,0,1,1.376-8H216a8.009,8.009,0,0,0-8,8V440A8.009,8.009,0,0,0,216,448Zm32,0h9.376A23.889,23.889,0,0,1,256,440V232a23.889,23.889,0,0,1,1.376-8H248a8.009,8.009,0,0,0-8,8V440A8.009,8.009,0,0,0,248,448Zm32,0h9.376A23.889,23.889,0,0,1,288,440V232a23.889,23.889,0,0,1,1.376-8H280a8.009,8.009,0,0,0-8,8V440A8.009,8.009,0,0,0,280,448Zm64-224a8.009,8.009,0,0,0-8,8V440a8.009,8.009,0,0,0,8,8H472a8.009,8.009,0,0,0,8-8V232a8.009,8.009,0,0,0-8-8Zm-32,0a8.009,8.009,0,0,0-8,8V440a8.009,8.009,0,0,0,8,8h9.376A23.889,23.889,0,0,1,320,440V232a23.889,23.889,0,0,1,1.376-8ZM128,248a8.009,8.009,0,0,0,8,8h24V238.624A24.038,24.038,0,0,1,144,216V200a8,8,0,0,1,16,0v16a7.975,7.975,0,0,0,2.347,5.655A24.03,24.03,0,0,1,184,208h56v-8a8,8,0,0,1,16,0v8h16V40a8.009,8.009,0,0,0-8-8H136a8.009,8.009,0,0,0-8,8Zm-24-24a8.009,8.009,0,0,0-8,8V440a8.009,8.009,0,0,0,8,8h57.376A23.889,23.889,0,0,1,160,440V368l-19.2,14.4a8,8,0,0,1-12.645-7.969l7.161-35.8-20.973-20.972A8,8,0,0,1,120,304h27.056L160,278.112V272H136a23.885,23.885,0,0,1-8-1.376V280a8,8,0,0,1-16,0V264a7.975,7.975,0,0,1,2.345-5.659A23.858,23.858,0,0,1,112,248V224Zm-32,0a8.009,8.009,0,0,0-8,8V440a8.009,8.009,0,0,0,8,8h9.376A23.889,23.889,0,0,1,80,440V232a23.889,23.889,0,0,1,1.376-8ZM32,440a8.009,8.009,0,0,0,8,8h9.376A23.889,23.889,0,0,1,48,440V232a23.889,23.889,0,0,1,1.376-8H40a8.009,8.009,0,0,0-8,8Z" style="fill:url(#linear-gradient)"/></svg>
